# xmcd CD database file
#
# Track frame offsets:
#	150
#	13599
#	37361
#	65230
#	79275
#	97292
#	120418
#	122956
#	145682
#	161361
#	181768
#	203124
#	226180
#	247837
#	265815
#	276889
#
# Disc length: 3953 seconds
#
# Revision: 5
# Processed by: cddbd v1.5.2PL0 Copyright (c) Steve Scherf et al.
# Submitted via: CDex 1.70beta2
#
DISCID=e20f6f10
DTITLE=Wolfgang Amadeus Mozart, Klazz Brothers and Cuba Percussion - Mozart Meets Cuba
DYEAR=2005
DGENRE=Jazz
TTITLE0=Guantaneritmo (Klaviersonate c-Moll KV457 - Allegro molto)
TTITLE1=Salzburger Schafferl (Die Zauberflöte, Potpourri)
TTITLE2=Calypso facile (Klaviersonate C-Dur KV545 - Allegro)
TTITLE3=Poema con cohiba (Klarinettenkonzert A-Dur KV622)
TTITLE4=Kubanischer Marsch (Klaviersonate A-Dur KV331 - Alla turca)
TTITLE5=Afrolero (Klavierkonzert Nr.21 C-Dur KV467 - Andante)
TTITLE6=Don Cajon (KV 0 acht 15)
TTITLE7=Don Muerte (Don Giovanni - Ouverture)
TTITLE8=Sonatadur (Klaviersonate A-Dur KV331 - Andante grazioso)
TTITLE9=Wenn son, danzon (Klavierkonzert Nr.23 A-Dur KV488 - Adagio)
TTITLE10=Reich mir die Hand (Don Giovanni)
TTITLE11=Tercero de la noche (Eine kleine Nachtmusik KV525 - Menuett)
TTITLE12=Yo siento mucho (Die Zauberflöte - 'Ach, ich fühl's, es ist entschwunden' - Besame Mucho)
TTITLE13=Bomba de la noche (Eine kleine Nachtmusik KV525 - Allegro)
TTITLE14=Hasta la vista Mozart (Chan chan (Compay segundo) KV2006)
TTITLE15=Son de Mozart (Fantasie c-Moll KV475, 1. Motiv)
EXTD=Arrangement: JW\\r\nSpecial Guests: Lou Bega -vocal Track 16\\r\nMario Felix Hernandez Morejon YEAR: 2005
EXTT0=
EXTT1=
EXTT2=
EXTT3=
EXTT4=
EXTT5=
EXTT6=
EXTT7=
EXTT8=
EXTT9=
EXTT10=
EXTT11=
EXTT12=
EXTT13=
EXTT14=
EXTT15=
PLAYORDER=
